<mxfile host="app.diagrams.net" modified="2024-07-17T19:19:14.998Z" agent="Mozilla/5.0 (Macintosh; Intel Mac OS X 10_15_7) AppleWebKit/537.36 (KHTML, like Gecko) Chrome/126.0.0.0 Safari/537.36" etag="0wIdAwbK_MeGhCdPVYF6" version="24.4.6" type="github">
  <diagram name="Page-1" id="K0ndWr1HXdiRXdNJ_nMR">
    <mxGraphModel dx="2100" dy="1002" grid="1" gridSize="10" guides="1" tooltips="1" connect="1" arrows="1" fold="1" page="1" pageScale="1" pageWidth="827" pageHeight="1169" math="0" shadow="0">
      <root>
        <mxCell id="0" />
        <mxCell id="1" parent="0" />
        <mxCell id="MRcmvMJiDpMc9HPzOxEv-2" value="" style="swimlane;horizontal=0;whiteSpace=wrap;html=1;startSize=120;" vertex="1" parent="1">
          <mxGeometry x="60" y="160" width="550" height="460" as="geometry">
            <mxRectangle x="60" y="160" width="40" height="120" as="alternateBounds" />
          </mxGeometry>
        </mxCell>
        <mxCell id="MRcmvMJiDpMc9HPzOxEv-6" value="" style="rounded=0;whiteSpace=wrap;html=1;" vertex="1" parent="MRcmvMJiDpMc9HPzOxEv-2">
          <mxGeometry x="120" width="430" height="30" as="geometry" />
        </mxCell>
        <mxCell id="MRcmvMJiDpMc9HPzOxEv-9" value="Profile" style="rounded=0;whiteSpace=wrap;html=1;" vertex="1" parent="MRcmvMJiDpMc9HPzOxEv-2">
          <mxGeometry x="10" y="70" width="100" height="20" as="geometry" />
        </mxCell>
        <mxCell id="MRcmvMJiDpMc9HPzOxEv-10" value="MENU" style="rounded=0;whiteSpace=wrap;html=1;" vertex="1" parent="MRcmvMJiDpMc9HPzOxEv-2">
          <mxGeometry x="10" y="140" width="100" height="20" as="geometry" />
        </mxCell>
        <mxCell id="MRcmvMJiDpMc9HPzOxEv-11" value="MENU" style="rounded=0;whiteSpace=wrap;html=1;" vertex="1" parent="MRcmvMJiDpMc9HPzOxEv-2">
          <mxGeometry x="10" y="160" width="100" height="20" as="geometry" />
        </mxCell>
        <mxCell id="MRcmvMJiDpMc9HPzOxEv-12" value="MENU" style="rounded=0;whiteSpace=wrap;html=1;" vertex="1" parent="MRcmvMJiDpMc9HPzOxEv-2">
          <mxGeometry x="10" y="180" width="100" height="20" as="geometry" />
        </mxCell>
        <mxCell id="MRcmvMJiDpMc9HPzOxEv-13" value="Log out" style="rounded=0;whiteSpace=wrap;html=1;" vertex="1" parent="MRcmvMJiDpMc9HPzOxEv-2">
          <mxGeometry x="10" y="400" width="100" height="20" as="geometry" />
        </mxCell>
        <mxCell id="MRcmvMJiDpMc9HPzOxEv-14" value="" style="ellipse;whiteSpace=wrap;html=1;aspect=fixed;" vertex="1" parent="MRcmvMJiDpMc9HPzOxEv-2">
          <mxGeometry x="10" y="70" width="20" height="20" as="geometry" />
        </mxCell>
        <mxCell id="MRcmvMJiDpMc9HPzOxEv-16" value="" style="whiteSpace=wrap;html=1;aspect=fixed;" vertex="1" parent="MRcmvMJiDpMc9HPzOxEv-2">
          <mxGeometry x="120" y="30" width="430" height="430" as="geometry" />
        </mxCell>
        <mxCell id="MRcmvMJiDpMc9HPzOxEv-20" value="&lt;meta charset=&quot;utf-8&quot;&gt;&lt;span style=&quot;color: rgb(0, 0, 0); font-family: Helvetica; font-size: 12px; font-style: normal; font-variant-ligatures: normal; font-variant-caps: normal; font-weight: 400; letter-spacing: normal; orphans: 2; text-align: center; text-indent: 0px; text-transform: none; widows: 2; word-spacing: 0px; -webkit-text-stroke-width: 0px; white-space: normal; background-color: rgb(251, 251, 251); text-decoration-thickness: initial; text-decoration-style: initial; text-decoration-color: initial; display: inline !important; float: none;&quot;&gt;DEMAND PARTNERS&lt;/span&gt;" style="text;html=1;align=center;verticalAlign=middle;whiteSpace=wrap;rounded=0;" vertex="1" parent="MRcmvMJiDpMc9HPzOxEv-2">
          <mxGeometry x="130" y="60" width="160" height="30" as="geometry" />
        </mxCell>
        <mxCell id="MRcmvMJiDpMc9HPzOxEv-25" value="" style="rounded=0;whiteSpace=wrap;html=1;fillColor=#dae8fc;strokeColor=#6c8ebf;" vertex="1" parent="MRcmvMJiDpMc9HPzOxEv-2">
          <mxGeometry x="150" y="140" width="370" height="250" as="geometry" />
        </mxCell>
        <mxCell id="MRcmvMJiDpMc9HPzOxEv-28" value="Partner" style="rounded=0;whiteSpace=wrap;html=1;align=left;fillColor=#a20025;fontColor=#ffffff;strokeColor=#6F0000;" vertex="1" parent="MRcmvMJiDpMc9HPzOxEv-2">
          <mxGeometry x="160" y="160" width="340" height="20" as="geometry" />
        </mxCell>
        <mxCell id="MRcmvMJiDpMc9HPzOxEv-30" value="&lt;font color=&quot;#ffffff&quot; style=&quot;font-size: 9px;&quot;&gt;Edit&lt;/font&gt;" style="text;html=1;align=center;verticalAlign=middle;whiteSpace=wrap;rounded=0;fontSize=9;" vertex="1" parent="MRcmvMJiDpMc9HPzOxEv-2">
          <mxGeometry x="400" y="155" width="60" height="30" as="geometry" />
        </mxCell>
        <mxCell id="MRcmvMJiDpMc9HPzOxEv-31" value="&lt;font color=&quot;#ffffff&quot; style=&quot;font-size: 9px;&quot;&gt;Delete&lt;/font&gt;" style="text;html=1;align=center;verticalAlign=middle;whiteSpace=wrap;rounded=0;fontSize=9;" vertex="1" parent="MRcmvMJiDpMc9HPzOxEv-2">
          <mxGeometry x="440" y="155" width="60" height="30" as="geometry" />
        </mxCell>
        <mxCell id="MRcmvMJiDpMc9HPzOxEv-32" value="1...3&amp;nbsp;" style="rounded=0;whiteSpace=wrap;html=1;fillColor=#a20025;fontColor=#ffffff;strokeColor=#6F0000;" vertex="1" parent="MRcmvMJiDpMc9HPzOxEv-2">
          <mxGeometry x="400" y="400" width="120" height="20" as="geometry" />
        </mxCell>
        <mxCell id="MRcmvMJiDpMc9HPzOxEv-76" value="Partner" style="rounded=0;whiteSpace=wrap;html=1;align=left;fillColor=#a20025;fontColor=#ffffff;strokeColor=#6F0000;" vertex="1" parent="MRcmvMJiDpMc9HPzOxEv-2">
          <mxGeometry x="160" y="190" width="340" height="20" as="geometry" />
        </mxCell>
        <mxCell id="MRcmvMJiDpMc9HPzOxEv-77" value="&lt;font color=&quot;#ffffff&quot; style=&quot;font-size: 9px;&quot;&gt;Edit&lt;/font&gt;" style="text;html=1;align=center;verticalAlign=middle;whiteSpace=wrap;rounded=0;fontSize=9;" vertex="1" parent="MRcmvMJiDpMc9HPzOxEv-2">
          <mxGeometry x="400" y="185" width="60" height="30" as="geometry" />
        </mxCell>
        <mxCell id="MRcmvMJiDpMc9HPzOxEv-78" value="&lt;font color=&quot;#ffffff&quot; style=&quot;font-size: 9px;&quot;&gt;Delete&lt;/font&gt;" style="text;html=1;align=center;verticalAlign=middle;whiteSpace=wrap;rounded=0;fontSize=9;" vertex="1" parent="MRcmvMJiDpMc9HPzOxEv-2">
          <mxGeometry x="440" y="185" width="60" height="30" as="geometry" />
        </mxCell>
        <mxCell id="MRcmvMJiDpMc9HPzOxEv-79" value="Partner" style="rounded=0;whiteSpace=wrap;html=1;align=left;fillColor=#a20025;fontColor=#ffffff;strokeColor=#6F0000;" vertex="1" parent="MRcmvMJiDpMc9HPzOxEv-2">
          <mxGeometry x="160" y="220" width="340" height="20" as="geometry" />
        </mxCell>
        <mxCell id="MRcmvMJiDpMc9HPzOxEv-80" value="&lt;font color=&quot;#ffffff&quot; style=&quot;font-size: 9px;&quot;&gt;Edit&lt;/font&gt;" style="text;html=1;align=center;verticalAlign=middle;whiteSpace=wrap;rounded=0;fontSize=9;" vertex="1" parent="MRcmvMJiDpMc9HPzOxEv-2">
          <mxGeometry x="400" y="215" width="60" height="30" as="geometry" />
        </mxCell>
        <mxCell id="MRcmvMJiDpMc9HPzOxEv-81" value="&lt;font color=&quot;#ffffff&quot; style=&quot;font-size: 9px;&quot;&gt;Delete&lt;/font&gt;" style="text;html=1;align=center;verticalAlign=middle;whiteSpace=wrap;rounded=0;fontSize=9;" vertex="1" parent="MRcmvMJiDpMc9HPzOxEv-2">
          <mxGeometry x="440" y="215" width="60" height="30" as="geometry" />
        </mxCell>
        <mxCell id="MRcmvMJiDpMc9HPzOxEv-97" value="" style="rounded=0;whiteSpace=wrap;html=1;fillColor=#76608a;fontColor=#ffffff;strokeColor=#432D57;" vertex="1" parent="MRcmvMJiDpMc9HPzOxEv-2">
          <mxGeometry x="420" y="5" width="120" height="20" as="geometry" />
        </mxCell>
        <mxCell id="MRcmvMJiDpMc9HPzOxEv-103" value="" style="triangle;whiteSpace=wrap;html=1;direction=west;" vertex="1" parent="MRcmvMJiDpMc9HPzOxEv-2">
          <mxGeometry x="100" y="10" width="10" height="15" as="geometry" />
        </mxCell>
        <mxCell id="MRcmvMJiDpMc9HPzOxEv-123" value="LOGO" style="text;html=1;align=center;verticalAlign=middle;whiteSpace=wrap;rounded=0;" vertex="1" parent="MRcmvMJiDpMc9HPzOxEv-2">
          <mxGeometry x="10" y="25" width="100" height="30" as="geometry" />
        </mxCell>
        <mxCell id="MRcmvMJiDpMc9HPzOxEv-4" value="" style="endArrow=classic;html=1;rounded=0;entryX=0.059;entryY=-0.007;entryDx=0;entryDy=0;entryPerimeter=0;exitX=0.5;exitY=1;exitDx=0;exitDy=0;" edge="1" parent="1" source="MRcmvMJiDpMc9HPzOxEv-5" target="MRcmvMJiDpMc9HPzOxEv-2">
          <mxGeometry width="50" height="50" relative="1" as="geometry">
            <mxPoint x="120" y="120" as="sourcePoint" />
            <mxPoint x="270" y="60" as="targetPoint" />
            <Array as="points" />
          </mxGeometry>
        </mxCell>
        <mxCell id="MRcmvMJiDpMc9HPzOxEv-5" value="We can add the ability to toggle menu to save some extra space at the page" style="text;html=1;align=center;verticalAlign=middle;whiteSpace=wrap;rounded=0;" vertex="1" parent="1">
          <mxGeometry x="100" y="20" width="190" height="60" as="geometry" />
        </mxCell>
        <mxCell id="MRcmvMJiDpMc9HPzOxEv-7" value="We may preserve some space as a default header( if needed)&amp;nbsp; with (for example) some default action&lt;br&gt;&lt;br&gt;Otherwise, no need in such header" style="text;html=1;align=center;verticalAlign=middle;whiteSpace=wrap;rounded=0;" vertex="1" parent="1">
          <mxGeometry x="350" y="10" width="220" height="70" as="geometry" />
        </mxCell>
        <mxCell id="MRcmvMJiDpMc9HPzOxEv-8" value="" style="endArrow=classic;html=1;rounded=0;exitX=0.5;exitY=1;exitDx=0;exitDy=0;" edge="1" parent="1" source="MRcmvMJiDpMc9HPzOxEv-7" target="MRcmvMJiDpMc9HPzOxEv-6">
          <mxGeometry width="50" height="50" relative="1" as="geometry">
            <mxPoint x="414" y="140" as="sourcePoint" />
            <mxPoint x="464" y="90" as="targetPoint" />
          </mxGeometry>
        </mxCell>
        <mxCell id="MRcmvMJiDpMc9HPzOxEv-22" value="" style="endArrow=classic;html=1;rounded=0;exitX=1;exitY=0.5;exitDx=0;exitDy=0;" edge="1" parent="1" source="MRcmvMJiDpMc9HPzOxEv-20">
          <mxGeometry width="50" height="50" relative="1" as="geometry">
            <mxPoint x="440" y="330" as="sourcePoint" />
            <mxPoint x="690" y="235" as="targetPoint" />
          </mxGeometry>
        </mxCell>
        <mxCell id="MRcmvMJiDpMc9HPzOxEv-23" value="Page title" style="text;html=1;align=center;verticalAlign=middle;whiteSpace=wrap;rounded=0;" vertex="1" parent="1">
          <mxGeometry x="700" y="220" width="60" height="30" as="geometry" />
        </mxCell>
        <mxCell id="MRcmvMJiDpMc9HPzOxEv-26" value="Table with items &amp;amp;&amp;amp; possible quick actions" style="text;html=1;align=center;verticalAlign=middle;whiteSpace=wrap;rounded=0;" vertex="1" parent="1">
          <mxGeometry x="690" y="330" width="120" height="30" as="geometry" />
        </mxCell>
        <mxCell id="MRcmvMJiDpMc9HPzOxEv-27" value="" style="endArrow=classic;html=1;rounded=0;entryX=0;entryY=0.5;entryDx=0;entryDy=0;exitX=1.005;exitY=0.184;exitDx=0;exitDy=0;exitPerimeter=0;" edge="1" parent="1" source="MRcmvMJiDpMc9HPzOxEv-25" target="MRcmvMJiDpMc9HPzOxEv-26">
          <mxGeometry width="50" height="50" relative="1" as="geometry">
            <mxPoint x="580" y="363" as="sourcePoint" />
            <mxPoint x="560" y="380" as="targetPoint" />
          </mxGeometry>
        </mxCell>
        <mxCell id="MRcmvMJiDpMc9HPzOxEv-33" value="" style="endArrow=classic;html=1;rounded=0;exitX=1;exitY=0.5;exitDx=0;exitDy=0;" edge="1" parent="1" source="MRcmvMJiDpMc9HPzOxEv-32" target="MRcmvMJiDpMc9HPzOxEv-34">
          <mxGeometry width="50" height="50" relative="1" as="geometry">
            <mxPoint x="490" y="460" as="sourcePoint" />
            <mxPoint x="540" y="410" as="targetPoint" />
          </mxGeometry>
        </mxCell>
        <mxCell id="MRcmvMJiDpMc9HPzOxEv-34" value="Pagination" style="text;html=1;align=center;verticalAlign=middle;whiteSpace=wrap;rounded=0;" vertex="1" parent="1">
          <mxGeometry x="690" y="555" width="60" height="30" as="geometry" />
        </mxCell>
        <mxCell id="MRcmvMJiDpMc9HPzOxEv-54" value="" style="swimlane;horizontal=0;whiteSpace=wrap;html=1;startSize=120;" vertex="1" parent="1">
          <mxGeometry x="827" y="160" width="550" height="460" as="geometry">
            <mxRectangle x="60" y="160" width="40" height="120" as="alternateBounds" />
          </mxGeometry>
        </mxCell>
        <mxCell id="MRcmvMJiDpMc9HPzOxEv-55" value="" style="rounded=0;whiteSpace=wrap;html=1;" vertex="1" parent="MRcmvMJiDpMc9HPzOxEv-54">
          <mxGeometry x="120" width="430" height="30" as="geometry" />
        </mxCell>
        <mxCell id="MRcmvMJiDpMc9HPzOxEv-56" value="Profile" style="rounded=0;whiteSpace=wrap;html=1;" vertex="1" parent="MRcmvMJiDpMc9HPzOxEv-54">
          <mxGeometry x="10" y="70" width="100" height="20" as="geometry" />
        </mxCell>
        <mxCell id="MRcmvMJiDpMc9HPzOxEv-57" value="MENU" style="rounded=0;whiteSpace=wrap;html=1;" vertex="1" parent="MRcmvMJiDpMc9HPzOxEv-54">
          <mxGeometry x="10" y="140" width="100" height="20" as="geometry" />
        </mxCell>
        <mxCell id="MRcmvMJiDpMc9HPzOxEv-58" value="MENU" style="rounded=0;whiteSpace=wrap;html=1;" vertex="1" parent="MRcmvMJiDpMc9HPzOxEv-54">
          <mxGeometry x="10" y="160" width="100" height="20" as="geometry" />
        </mxCell>
        <mxCell id="MRcmvMJiDpMc9HPzOxEv-59" value="MENU" style="rounded=0;whiteSpace=wrap;html=1;" vertex="1" parent="MRcmvMJiDpMc9HPzOxEv-54">
          <mxGeometry x="10" y="180" width="100" height="20" as="geometry" />
        </mxCell>
        <mxCell id="MRcmvMJiDpMc9HPzOxEv-60" value="Log out" style="rounded=0;whiteSpace=wrap;html=1;" vertex="1" parent="MRcmvMJiDpMc9HPzOxEv-54">
          <mxGeometry x="10" y="400" width="100" height="20" as="geometry" />
        </mxCell>
        <mxCell id="MRcmvMJiDpMc9HPzOxEv-61" value="" style="ellipse;whiteSpace=wrap;html=1;aspect=fixed;" vertex="1" parent="MRcmvMJiDpMc9HPzOxEv-54">
          <mxGeometry x="10" y="70" width="20" height="20" as="geometry" />
        </mxCell>
        <mxCell id="MRcmvMJiDpMc9HPzOxEv-62" value="" style="whiteSpace=wrap;html=1;aspect=fixed;" vertex="1" parent="MRcmvMJiDpMc9HPzOxEv-54">
          <mxGeometry x="120" y="30" width="430" height="430" as="geometry" />
        </mxCell>
        <mxCell id="MRcmvMJiDpMc9HPzOxEv-63" value="&lt;span style=&quot;color: rgb(0, 0, 0); font-family: Helvetica; font-size: 12px; font-style: normal; font-variant-ligatures: normal; font-variant-caps: normal; font-weight: 400; letter-spacing: normal; orphans: 2; text-indent: 0px; text-transform: none; widows: 2; word-spacing: 0px; -webkit-text-stroke-width: 0px; white-space: normal; background-color: rgb(251, 251, 251); text-decoration-thickness: initial; text-decoration-style: initial; text-decoration-color: initial; float: none; display: inline !important;&quot;&gt;PARTNER&lt;/span&gt;" style="text;html=1;align=left;verticalAlign=middle;whiteSpace=wrap;rounded=0;" vertex="1" parent="MRcmvMJiDpMc9HPzOxEv-54">
          <mxGeometry x="143" y="60" width="70" height="30" as="geometry" />
        </mxCell>
        <mxCell id="MRcmvMJiDpMc9HPzOxEv-66" value="&lt;font color=&quot;#ffffff&quot; style=&quot;font-size: 9px;&quot;&gt;Edit&lt;/font&gt;" style="text;html=1;align=center;verticalAlign=middle;whiteSpace=wrap;rounded=0;fontSize=9;" vertex="1" parent="MRcmvMJiDpMc9HPzOxEv-54">
          <mxGeometry x="400" y="155" width="60" height="30" as="geometry" />
        </mxCell>
        <mxCell id="MRcmvMJiDpMc9HPzOxEv-67" value="&lt;font color=&quot;#ffffff&quot; style=&quot;font-size: 9px;&quot;&gt;Delete&lt;/font&gt;" style="text;html=1;align=center;verticalAlign=middle;whiteSpace=wrap;rounded=0;fontSize=9;" vertex="1" parent="MRcmvMJiDpMc9HPzOxEv-54">
          <mxGeometry x="440" y="155" width="60" height="30" as="geometry" />
        </mxCell>
        <mxCell id="MRcmvMJiDpMc9HPzOxEv-83" value="&lt;font style=&quot;font-size: 8px;&quot;&gt;Demand partners &amp;gt; partner&lt;/font&gt;" style="text;html=1;align=left;verticalAlign=middle;whiteSpace=wrap;rounded=0;" vertex="1" parent="MRcmvMJiDpMc9HPzOxEv-54">
          <mxGeometry x="143" y="90" width="117" height="30" as="geometry" />
        </mxCell>
        <mxCell id="MRcmvMJiDpMc9HPzOxEv-102" value="Save changes" style="rounded=0;whiteSpace=wrap;html=1;fillColor=#a20025;fontColor=#ffffff;strokeColor=#6F0000;" vertex="1" parent="MRcmvMJiDpMc9HPzOxEv-54">
          <mxGeometry x="410" y="405" width="120" height="20" as="geometry" />
        </mxCell>
        <mxCell id="MRcmvMJiDpMc9HPzOxEv-124" value="LOGO" style="text;html=1;align=center;verticalAlign=middle;whiteSpace=wrap;rounded=0;" vertex="1" parent="MRcmvMJiDpMc9HPzOxEv-54">
          <mxGeometry x="10" y="30" width="100" height="30" as="geometry" />
        </mxCell>
        <mxCell id="MRcmvMJiDpMc9HPzOxEv-69" value="" style="endArrow=classic;html=1;rounded=0;exitX=1;exitY=0.5;exitDx=0;exitDy=0;entryX=0;entryY=0.5;entryDx=0;entryDy=0;" edge="1" parent="1" source="MRcmvMJiDpMc9HPzOxEv-63" target="MRcmvMJiDpMc9HPzOxEv-70">
          <mxGeometry width="50" height="50" relative="1" as="geometry">
            <mxPoint x="1207" y="340" as="sourcePoint" />
            <mxPoint x="1457" y="245" as="targetPoint" />
          </mxGeometry>
        </mxCell>
        <mxCell id="MRcmvMJiDpMc9HPzOxEv-70" value="Page title" style="text;html=1;align=center;verticalAlign=middle;whiteSpace=wrap;rounded=0;" vertex="1" parent="1">
          <mxGeometry x="1480" y="220" width="60" height="30" as="geometry" />
        </mxCell>
        <mxCell id="MRcmvMJiDpMc9HPzOxEv-74" value="" style="shape=flexArrow;endArrow=classic;html=1;rounded=0;exitX=1;exitY=0.5;exitDx=0;exitDy=0;entryX=0;entryY=0.5;entryDx=0;entryDy=0;fillColor=#e51400;strokeColor=#B20000;width=23.076923076923077;endSize=7.384615384615384;" edge="1" parent="1" source="MRcmvMJiDpMc9HPzOxEv-81" target="MRcmvMJiDpMc9HPzOxEv-54">
          <mxGeometry width="50" height="50" relative="1" as="geometry">
            <mxPoint x="680" y="480" as="sourcePoint" />
            <mxPoint x="730" y="430" as="targetPoint" />
          </mxGeometry>
        </mxCell>
        <mxCell id="MRcmvMJiDpMc9HPzOxEv-82" value="&lt;font color=&quot;#ffffff&quot;&gt;onClick&lt;/font&gt;" style="text;html=1;align=center;verticalAlign=middle;whiteSpace=wrap;rounded=0;" vertex="1" parent="1">
          <mxGeometry x="660" y="375" width="60" height="30" as="geometry" />
        </mxCell>
        <mxCell id="MRcmvMJiDpMc9HPzOxEv-84" value="" style="endArrow=classic;html=1;rounded=0;exitX=1;exitY=0.5;exitDx=0;exitDy=0;entryX=0;entryY=0.5;entryDx=0;entryDy=0;" edge="1" parent="1" source="MRcmvMJiDpMc9HPzOxEv-83" target="MRcmvMJiDpMc9HPzOxEv-88">
          <mxGeometry width="50" height="50" relative="1" as="geometry">
            <mxPoint x="1300" y="280" as="sourcePoint" />
            <mxPoint x="1480" y="260" as="targetPoint" />
          </mxGeometry>
        </mxCell>
        <mxCell id="MRcmvMJiDpMc9HPzOxEv-88" value="Breadcrumbs" style="text;html=1;align=center;verticalAlign=middle;whiteSpace=wrap;rounded=0;" vertex="1" parent="1">
          <mxGeometry x="1480" y="250" width="90" height="30" as="geometry" />
        </mxCell>
        <mxCell id="MRcmvMJiDpMc9HPzOxEv-89" value="" style="rounded=0;whiteSpace=wrap;html=1;fillColor=#76608a;fontColor=#ffffff;strokeColor=#432D57;" vertex="1" parent="1">
          <mxGeometry x="970" y="290" width="390" height="260" as="geometry" />
        </mxCell>
        <mxCell id="MRcmvMJiDpMc9HPzOxEv-91" value="" style="endArrow=classic;html=1;rounded=0;exitX=1;exitY=0.5;exitDx=0;exitDy=0;entryX=0;entryY=0.5;entryDx=0;entryDy=0;" edge="1" parent="1" source="MRcmvMJiDpMc9HPzOxEv-89" target="MRcmvMJiDpMc9HPzOxEv-92">
          <mxGeometry width="50" height="50" relative="1" as="geometry">
            <mxPoint x="1110" y="380" as="sourcePoint" />
            <mxPoint x="1450" y="420" as="targetPoint" />
          </mxGeometry>
        </mxCell>
        <mxCell id="MRcmvMJiDpMc9HPzOxEv-92" value="Data: readonly or with the ability to edit (depends on whether we need to separate VIEW and EDIT actions)" style="text;html=1;align=center;verticalAlign=middle;whiteSpace=wrap;rounded=0;" vertex="1" parent="1">
          <mxGeometry x="1484" y="370" width="170" height="100" as="geometry" />
        </mxCell>
        <mxCell id="MRcmvMJiDpMc9HPzOxEv-94" value="PARTNER" style="rounded=0;whiteSpace=wrap;html=1;" vertex="1" parent="1">
          <mxGeometry x="980" y="310" width="120" height="20" as="geometry" />
        </mxCell>
        <mxCell id="MRcmvMJiDpMc9HPzOxEv-95" value="Name" style="text;html=1;align=center;verticalAlign=middle;whiteSpace=wrap;rounded=0;" vertex="1" parent="1">
          <mxGeometry x="970" y="290" width="60" height="20" as="geometry" />
        </mxCell>
        <mxCell id="MRcmvMJiDpMc9HPzOxEv-99" value="F.e. here, we may want &#39;Create partner&#39; button" style="text;html=1;align=center;verticalAlign=middle;resizable=0;points=[];autosize=1;strokeColor=none;fillColor=none;" vertex="1" parent="1">
          <mxGeometry x="495" y="88" width="270" height="30" as="geometry" />
        </mxCell>
        <mxCell id="MRcmvMJiDpMc9HPzOxEv-101" value="" style="edgeStyle=none;orthogonalLoop=1;jettySize=auto;html=1;rounded=0;entryX=0.5;entryY=0;entryDx=0;entryDy=0;exitX=0.419;exitY=1.058;exitDx=0;exitDy=0;exitPerimeter=0;" edge="1" parent="1" source="MRcmvMJiDpMc9HPzOxEv-99" target="MRcmvMJiDpMc9HPzOxEv-97">
          <mxGeometry width="100" relative="1" as="geometry">
            <mxPoint x="550" y="130" as="sourcePoint" />
            <mxPoint x="650" y="130" as="targetPoint" />
            <Array as="points" />
          </mxGeometry>
        </mxCell>
      </root>
    </mxGraphModel>
  </diagram>
</mxfile>
